<svg width="128" height="128" viewBox="0 0 128 128" fill="none" xmlns="http://www.w3.org/2000/svg">
  <rect width="128" height="128" rx="32" fill="#12343B"/>
  <path d="M64 27C51.2975 27 41 37.2975 41 50C41 67 64 85 64 85C64 85 87 67 87 50C87 37.2975 76.7025 27 64 27Z" fill="#F7B267"/>
  <path d="M57 49H71M64 42V56" stroke="#12343B" stroke-width="6" stroke-linecap="round"/>
  <path d="M34 92C34 82.0589 42.0589 74 52 74H76C85.9411 74 94 82.0589 94 92V94C94 97.3137 91.3137 100 88 100H40C36.6863 100 34 97.3137 34 94V92Z" fill="#7BD389"/>
</svg>
